<svg width="68" height="68" xmlns="http://www.w3.org/2000/svg" xmlns:xlink="http://www.w3.org/1999/xlink" overflow="hidden"><defs><clipPath id="clip0"><path d="M434 277 502 277 502 345 434 345Z" fill-rule="evenodd" clip-rule="evenodd"/></clipPath><clipPath id="clip1"><path d="M435 277 502 277 502 344 435 344Z" fill-rule="evenodd" clip-rule="evenodd"/></clipPath><clipPath id="clip2"><path d="M435 277 502 277 502 344 435 344Z" fill-rule="evenodd" clip-rule="evenodd"/></clipPath></defs><g clip-path="url(#clip0)" transform="translate(-434 -277)"><g clip-path="url(#clip1)"><g clip-path="url(#clip2)"><path d="M68.7431 9.82045 63.8329 65.4697 40.9185 72.0166 18.0042 65.4697 13.0939 9.82045ZM27.4986 45.8288 34.0455 45.8288 34.2053 49.9206 40.9185 52.2094 47.6318 49.9206 48.1176 42.5553 33.7195 42.5553 33.3869 36.0083 48.4502 36.0083 48.9359 29.4613 26.3542 29.4613 25.8618 22.9144 55.8155 22.9144 54.9971 36.0083 53.8462 54.8308 40.9185 59.089 27.9909 54.8308Z" fill-rule="evenodd" transform="matrix(1.00001 0 -0 1 426.998 269.581)"/></g></g></g></svg>