<svg width="68" height="68" xmlns="http://www.w3.org/2000/svg" xmlns:xlink="http://www.w3.org/1999/xlink" overflow="hidden"><defs><clipPath id="clip0"><path d="M46 445 114 445 114 513 46 513Z" fill-rule="evenodd" clip-rule="evenodd"/></clipPath><clipPath id="clip1"><path d="M46 446 113 446 113 513 46 513Z" fill-rule="evenodd" clip-rule="evenodd"/></clipPath><clipPath id="clip2"><path d="M48 450 113 450 113 510 48 510Z" fill-rule="evenodd" clip-rule="evenodd"/></clipPath><clipPath id="clip3"><path d="M48 450 325 450 325 510 48 510Z" fill-rule="evenodd" clip-rule="evenodd"/></clipPath></defs><g clip-path="url(#clip0)" transform="translate(-46 -445)"><g clip-path="url(#clip1)"><g clip-path="url(#clip2)"><g clip-path="url(#clip3)"><path d="M106.821 34.8112 111.176 23.3591C111.431 22.681 112.384 22.681 112.639 23.3591L116.998 34.8091 106.821 34.8091 106.821 34.8112M116.703 13.6193C116.393 12.7982 115.606 12.2554 114.728 12.2566L109.091 12.2566C108.213 12.2558 107.425 12.7983 107.114 13.6193L95.1551 45.1678C94.9887 45.6089 95.0495 46.1033 95.3177 46.4909 95.586 46.8786 96.0275 47.1095 96.4988 47.109L101.146 47.109C101.743 47.1081 102.277 46.7398 102.49 46.183L103.736 42.9045C103.948 42.3467 104.483 41.9782 105.079 41.9785L118.731 41.9785C119.325 41.9785 119.861 42.3472 120.073 42.9045L121.323 46.1808C121.535 46.736 122.065 47.1047 122.664 47.1047L127.312 47.1047C127.784 47.1052 128.226 46.8738 128.494 46.486 128.763 46.0979 128.824 45.6029 128.658 45.1614L116.703 13.6171 116.703 13.6193M274.554 12.2566 269.971 12.2566C268.763 12.2566 267.66 12.9496 267.14 14.0367L258.038 33.0757 248.936 14.0367C248.411 12.9481 247.31 12.2561 246.102 12.2566L241.519 12.2566C240.687 12.2566 240.013 12.9303 240.013 13.7612L240.013 45.6022C240.013 46.4352 240.685 47.1069 241.519 47.1069L245.92 47.1069C246.319 47.1081 246.704 46.9502 246.986 46.6677 247.269 46.3855 247.428 46.0022 247.428 45.6022L247.428 29.0874 255.773 46.2614C256.029 46.7783 256.553 47.109 257.13 47.109L258.941 47.109C259.517 47.109 260.042 46.7783 260.297 46.2614L268.645 29.0874 268.645 45.6022C268.645 46.4352 269.319 47.1069 270.151 47.1069L274.552 47.1069C275.384 47.1069 276.057 46.4333 276.057 45.6022L276.057 13.7612C276.057 12.9303 275.384 12.2566 274.552 12.2566L274.554 12.2566M93.9665 27.2607 79.399 27.2607 79.399 19.4259 97.8297 19.4259C98.457 19.4259 99.0165 19.0317 99.2285 18.4426L100.733 14.2381C100.895 13.7834 100.826 13.2784 100.548 12.884 100.269 12.4895 99.8168 12.2548 99.3344 12.2545L73.6982 12.2545C72.879 12.2545 72.2148 12.9187 72.2148 13.7379L72.2148 45.6235C72.2148 46.4427 72.879 47.1069 73.6982 47.1069L77.9069 47.1069C78.7264 47.1069 79.3905 46.4427 79.3905 45.6235L79.3905 34.4276 92.4616 34.4276C93.0889 34.4286 93.6488 34.0348 93.8604 33.4444L95.365 29.2399C95.5279 28.7851 95.4591 28.2796 95.1809 27.8849 94.9025 27.4902 94.4494 27.2557 93.9663 27.2564L93.9663 27.2604M181.347 40.2342 175.244 40.2342 175.244 19.1312 181.347 19.1312C187.811 19.1312 192.168 23.4226 192.168 29.6849 192.168 35.9429 187.809 40.2342 181.347 40.2342M181.135 12.2565 169.105 12.2565C168.286 12.2565 167.621 12.9207 167.621 13.7399L167.621 45.6233C167.621 46.4427 168.286 47.1069 169.105 47.1069L181.138 47.1069C192.03 47.1069 199.56 39.5348 199.56 29.7823L199.56 29.5831C199.56 19.8305 192.037 12.2565 181.14 12.2565L181.136 12.2565M160.967 12.3053 156.517 12.3053C155.699 12.3053 155.033 12.9664 155.033 13.7823L155.033 34.8578 140.254 13.1678C139.866 12.5967 139.22 12.2553 138.529 12.2566L132.934 12.2566C132.118 12.2578 131.457 12.9197 131.457 13.7358L131.457 45.6299C131.457 46.4458 132.121 47.109 132.936 47.109L137.397 47.109C138.214 47.1078 138.875 46.4463 138.876 45.6299L138.876 24.9189 153.408 46.1957C153.796 46.7679 154.442 47.1069 155.133 47.1069L160.976 47.1069C161.796 47.1069 162.459 46.4458 162.459 45.6299L162.459 13.7824C162.458 13.3897 162.302 13.0134 162.023 12.7364 161.745 12.4593 161.368 12.3042 160.976 12.3053L160.966 12.3053M229.692 29.8693C229.692 35.5361 225.119 40.1261 219.473 40.1261 213.817 40.1193 209.239 35.5257 209.25 29.8693L209.25 29.4963C209.25 23.8316 213.828 19.2394 219.473 19.2394 225.119 19.2394 229.694 23.8316 229.694 29.4963L229.694 29.8714 229.692 29.8693M219.473 12.068C209.861 12.068 202.07 19.873 202.07 29.4963L202.07 29.8714C202.07 39.4989 209.861 47.2997 219.473 47.2997 229.084 47.2997 236.872 39.501 236.872 29.8736L236.872 29.5006C236.872 19.8794 229.084 12.0744 219.473 12.0744L219.473 12.0679" fill-rule="evenodd" transform="matrix(1.00004 0 -0 1 48.7114 450.444)"/><path d="M26.8589 43.1673C26.8589 43.6611 26.7378 44.3628 26.1704 44.8981L24.0467 46.7098 4.73411 28.6998 4.73411 21.6334 25.9704 41.4389C26.3029 41.7504 26.8612 42.3918 26.8612 43.1697L26.8589 43.1673ZM56.2732 22.1503 56.2732 28.7043 32.2458 51.7085C31.8457 52.0824 31.4479 52.2507 30.948 52.2507 30.4363 52.2507 29.9825 52.0661 29.5989 51.7037L27.4008 49.733 56.2732 22.148 56.2732 22.1503ZM37.9678 33.8278 31.3085 40.1141 10.2118 20.1979C9.14881 19.1963 8.56733 17.8601 8.56733 16.4293 8.56733 15.0031 9.14881 13.6669 10.2048 12.6676L16.8688 6.37429 37.9654 26.2951C40.1682 28.372 40.1682 31.7483 37.9654 33.8254L37.9678 33.8278ZM34.0369 16.4778 40.9799 9.92367C42.0451 8.9221 43.4618 8.37052 44.969 8.37052 46.4808 8.37052 47.8951 8.92439 48.958 9.92828L56.1219 16.6901 45.1945 27.0059 41.2056 23.2442 34.0414 16.4778 34.0369 16.4778ZM60.7159 15.4347 45.0248 0.364825 44.6991 0.0509649 44.3734 0.360209 30.6689 13.4223 18.4202 1.79796 18.4041 1.78189 18.3926 1.775 16.8575 0.551876 16.5412 0.298022 16.2434 0.574954 0.296493 15.4071 0.156907 15.5363 0.156907 30.4907 0.2919 30.6176 30.1924 58.8303 30.5181 59.1397 30.8438 58.8327 60.7162 30.62 60.8488 30.493 60.8488 15.5594 60.7185 15.4348 60.7159 15.4347Z" fill-rule="evenodd" transform="matrix(1.00004 0 -0 1 48.7114 450.444)"/></g></g></g></g></svg>