<svg width="66.6667" height="66.6667" viewBox="0 0 50 50" xmlns="http://www.w3.org/2000/svg" xmlns:xlink="http://www.w3.org/1999/xlink" overflow="hidden"><g id="surface14324443"><path d="M45.2734 2.32422C45.0859 2.11719 44.8164 2 44.5352 2L5.46484 2C5.18359 2 4.91406 2.11719 4.72656 2.32422 4.53516 2.53125 4.44141 2.80859 4.46875 3.08984L7.98828 42.5156C8.02344 42.9297 8.3125 43.2734 8.71094 43.3906L24.7227 47.9609C24.8086 47.9883 24.9023 48 24.9961 48 25.0898 48 25.1797 47.9883 25.2695 47.9609L41.293 43.3906C41.6914 43.2734 41.9766 42.9297 42.0156 42.5156L45.5313 3.08984C45.5586 2.80859 45.4648 2.53125 45.2734 2.32422ZM36.8477 15.918 18.0352 15.918 18.4844 21.0078 36.3945 21.0078 35.0508 36.0508 24.9922 39.0898 24.8945 39.0586 14.9531 36.0469 14.4102 29.918 19.2813 29.918 19.4922 32.2969 25.0508 33.4609 30.5078 32.2969 31.0898 25.8594 14.0469 25.8594 12.7227 11.0547 37.2813 11.0547Z" fill="#3A3A3A"/></g></svg>