<svg width="582" height="533" xmlns="http://www.w3.org/2000/svg" xmlns:xlink="http://www.w3.org/1999/xlink" overflow="hidden"><defs><clipPath id="clip0"><path d="M119 138 701 138 701 671 119 671Z" fill-rule="evenodd" clip-rule="evenodd"/></clipPath></defs><g clip-path="url(#clip0)" transform="translate(-119 -138)"><path d="M443.149 461.44 443.129 461.492C441.766 466.734 441.05 472.161 441.05 477.72 441.05 522.19 486.843 558.24 543.33 558.24 599.818 558.24 645.61 522.19 645.61 477.72 645.61 472.161 644.894 466.734 643.532 461.492L643.511 461.44ZM174.489 461.44 174.468 461.492C173.106 466.734 172.39 472.161 172.39 477.72 172.39 522.19 218.182 558.24 274.67 558.24 331.157 558.24 376.949 522.19 376.949 477.72 376.949 472.161 376.234 466.734 374.872 461.492L374.851 461.44ZM153.189 318 664.811 318C683.141 318 698 332.841 698 351.148L698 636.852C698 655.159 683.141 670 664.811 670L153.189 670C134.859 670 120 655.159 120 636.852L120 351.148C120 332.841 134.859 318 153.189 318Z" fill-rule="evenodd"/><path d="M437.074 315.563 695.527 138.358 699.326 451.703Z" fill="#BDD7EE" fill-rule="evenodd"/><path d="M522 318C522 307.507 530.507 299 541 299 551.493 299 560 307.507 560 318 560 328.493 551.493 337 541 337 530.507 337 522 328.493 522 318Z" fill="#FFD966" fill-rule="evenodd"/><path d="M626 318C626 307.507 634.507 299 645 299 655.493 299 664 307.507 664 318 664 328.493 655.493 337 645 337 634.507 337 626 328.493 626 318Z" fill="#F4B183" fill-rule="evenodd"/><path d="M612.373 198.853C610.233 195.403 620.433 187.053 625.701 183.6 630.969 180.147 641.965 174.87 643.983 178.133 646 181.397 647.266 198.577 638.537 204.298 629.809 210.02 614.512 202.303 612.373 198.853Z" fill="#8FAADC" fill-rule="evenodd"/><path d="M679 400C679 389.79 694.556 378.433 697.667 381.514 700.778 384.595 700.778 415.405 697.667 418.486 694.556 421.567 679 410.21 679 400Z" fill="#A9D18E" fill-rule="evenodd"/></g></svg>