<svg width="716" height="541" xmlns="http://www.w3.org/2000/svg" xmlns:xlink="http://www.w3.org/1999/xlink" overflow="hidden"><defs><clipPath id="clip0"><path d="M113 130 829 130 829 671 113 671Z" fill-rule="evenodd" clip-rule="evenodd"/></clipPath></defs><g clip-path="url(#clip0)" transform="translate(-113 -130)"><path d="M443.149 461.44 443.129 461.492C441.766 466.734 441.05 472.161 441.05 477.72 441.05 522.19 486.843 558.24 543.33 558.24 599.818 558.24 645.61 522.19 645.61 477.72 645.61 472.161 644.894 466.734 643.532 461.492L643.511 461.44 443.149 461.44ZM174.489 461.44C174.482 461.457 174.475 461.475 174.468 461.492 173.106 466.734 172.39 472.161 172.39 477.72 172.39 522.19 218.182 558.24 274.67 558.24 331.157 558.24 376.949 522.19 376.949 477.72 376.949 472.161 376.234 466.734 374.872 461.492L374.851 461.44 174.489 461.44ZM153.189 318 528.241 344.4C546.571 344.4 698 357.481 698 375.788L698 636.852C698 655.159 683.141 670 664.811 670L153.189 670C134.859 670 120 655.159 120 636.852L120 351.148C120 332.841 134.859 318 153.189 318Z" fill-rule="evenodd"/><path d="M180 295.388C180.56 291.263 180.555 289.132 181.793 285.485 182.023 284.81 182.358 284.156 182.69 283.505 183.738 281.447 184.795 279.473 186.277 277.563 186.812 276.874 187.624 276.305 188.07 275.582 189.127 273.871 189.704 272.013 190.76 270.301 191.206 269.579 192.072 269.03 192.554 268.32 192.977 267.698 193.119 266.991 193.451 266.34 194.016 265.23 194.524 264.099 195.244 263.039 195.726 262.329 196.555 261.768 197.037 261.058 200.017 256.671 197.79 257.587 202.418 252.476 203.015 251.816 203.729 251.205 204.211 250.495 206.162 247.622 203.791 249.079 206.901 245.874 207.638 245.114 208.694 244.553 209.591 243.893 211.339 240.676 210.79 241.029 213.178 238.612 214.936 236.832 218.558 233.33 218.558 233.33 220.195 228.509 218.138 232.642 222.145 228.709 223.191 227.682 223.911 226.496 224.835 225.408 225.406 224.735 225.995 224.069 226.628 223.427 228.386 221.647 232.009 218.146 232.009 218.146 233.478 213.819 231.811 216.803 236.492 212.864 241.683 208.496 236.716 211.984 241.872 206.922 242.633 206.175 243.727 205.644 244.562 204.942 245.823 203.881 247.052 202.795 248.149 201.641 249.149 200.59 249.872 199.407 250.839 198.34 251.668 197.424 252.737 196.632 253.529 195.699 254.238 194.864 254.614 193.893 255.323 193.058 257.381 190.634 258.819 189.824 261.6 187.777 264.264 181.892 259.901 190.545 271.463 179.194 272.36 178.314 272.958 177.214 274.154 176.553 275.441 175.842 277.142 175.673 278.637 175.233 280.486 173.871 283.341 171.521 285.811 170.612 288.69 169.552 292.202 169.393 294.778 167.971 300.659 164.724 295.893 166.997 302.848 164.67 304.673 164.059 306.475 163.406 308.228 162.689 309.17 162.304 309.896 161.62 310.918 161.369 312.643 160.946 314.505 160.929 316.298 160.709 317.494 160.049 318.579 159.263 319.885 158.728 321.292 158.153 322.903 157.898 324.369 157.408 326.194 156.797 327.989 156.134 329.749 155.427 331.279 154.813 332.646 153.978 334.232 153.447 335.953 152.871 337.922 152.749 339.613 152.126 345.912 149.807 345.697 149.704 351.27 148.165 352.155 147.921 353.037 147.656 353.96 147.505 355.735 147.214 357.565 147.135 359.34 146.845 360.263 146.694 361.113 146.353 362.03 146.184 363.509 145.912 365.019 145.744 366.514 145.524 369.702 144.351 371.787 143.427 375.481 142.883 378.135 142.493 380.861 142.443 383.551 142.223 384.746 142.003 385.953 141.812 387.138 141.563 388.047 141.372 388.905 141.054 389.828 140.903 394.291 140.173 398.729 139.257 403.278 138.922 406.267 138.702 409.265 138.536 412.245 138.262 414.049 138.096 415.843 137.864 417.626 137.602 418.834 137.424 419.991 137.062 421.212 136.942 424.485 136.621 427.79 136.512 431.076 136.282 448.644 135.05 431.035 136.174 450.803 134.961 461.036 133.454 457.974 133.707 467.841 132.981 471.126 132.739 474.405 132.396 477.704 132.32L554.821 131 602.346 131.66C603.869 131.699 605.34 132.082 606.829 132.32 612.215 133.182 617.741 133.678 622.97 134.961 623.867 135.181 624.782 135.363 625.66 135.621 627.774 136.244 629.777 137.072 631.937 137.602 633.383 137.957 634.926 138.042 636.42 138.262 638.513 138.922 640.558 139.67 642.697 140.243 653.025 143.008 637.589 137.905 651.664 142.223 662.788 145.636 650.584 143.059 666.011 146.845 667.805 147.285 669.671 147.589 671.392 148.165 672.978 148.696 674.282 149.625 675.875 150.146 677.001 150.514 678.282 150.545 679.462 150.806 681.273 151.206 683.066 151.651 684.842 152.126 692.152 154.083 686.57 152.691 692.912 154.767 694.383 155.248 695.925 155.606 697.396 156.087 698.617 156.487 699.715 157.097 700.983 157.408 702.429 157.763 703.972 157.848 705.466 158.068 706.662 158.508 707.832 158.989 709.053 159.388 710.524 159.87 712.097 160.179 713.537 160.709 714.5 161.064 715.263 161.674 716.227 162.029 717.666 162.559 719.271 162.82 720.71 163.35 723.821 164.495 728.269 168.066 730.574 168.631L733.264 169.291C734.161 169.951 734.991 170.664 735.954 171.272 737.089 171.988 738.484 172.474 739.541 173.252 740.303 173.813 740.572 174.672 741.334 175.233 742.096 175.794 743.227 176.02 744.024 176.553 746.526 178.228 748.807 180.074 751.198 181.835L754.785 184.476C755.681 185.136 756.663 185.739 757.475 186.456 762.915 191.263 760.091 189.386 765.545 192.398 768.953 198.67 765.3 193.203 770.029 197.68 777.947 205.175 769.429 198.559 777.202 204.282 778.13 206.331 778.23 206.863 779.892 208.903 782.419 212.003 783.633 212.487 785.273 215.505 785.975 216.797 786.607 218.116 787.066 219.466 787.365 220.346 787.53 221.257 787.963 222.107 788.432 223.028 789.26 223.834 789.756 224.748 790.458 226.04 790.952 227.388 791.549 228.709 791.848 229.369 792.023 230.067 792.446 230.689 793.044 231.57 793.77 232.409 794.24 233.33 795.274 235.362 795.181 237.18 796.033 239.272 796.495 240.407 797.364 241.438 797.826 242.573 799.942 247.764 797.165 244.154 800.516 247.854 802.346 255.934 800.541 247.357 802.31 259.078 803.45 266.63 802.654 261.004 804.103 266.34 804.46 267.652 804.701 268.981 805 270.301 804.701 281.964 804.951 293.642 804.103 305.291 804.046 306.084 802.792 306.562 802.31 307.272 801.887 307.894 802.018 308.718 801.413 309.252 800.456 310.098 798.883 310.455 797.826 311.233 790.354 316.735 805.897 308.372 790.653 315.854 789.756 316.294 788.985 316.924 787.963 317.175L782.582 318.495C776.007 318.275 769.417 318.221 762.855 317.835 758.548 317.581 759.976 315.489 754.785 314.534 741.255 312.044 761.678 316.006 747.611 312.553 745.273 311.979 742.776 311.807 740.438 311.233 737.747 310.573 735.118 309.759 732.367 309.252L725.194 307.932C718.02 308.152 710.755 307.723 703.673 308.592 700.273 309.009 698.031 311.724 695.603 313.214 694.775 313.722 693.718 314.007 692.912 314.534 691.017 315.775 687.532 318.495 687.532 318.495 686.934 319.816 686.787 321.298 685.739 322.456 682.897 325.595 684.286 323.684 682.152 328.398 681.853 329.058 681.255 329.683 681.255 330.379L681.255 335" fill="#FF0000" fill-rule="evenodd"/><path d="M125.135 296.134C126.387 284.419 136.899 275.938 148.614 277.19L703.449 336.502C715.164 337.754 723.645 348.266 722.393 359.981L711.356 463.225C710.104 474.94 699.592 483.421 687.877 482.169L133.043 422.857C121.328 421.605 112.846 411.093 114.098 399.378Z" fill="#FFFFFF" fill-rule="evenodd"/><path d="M753 342C753 321.013 769.789 304 790.5 304 811.211 304 828 321.013 828 342 828 362.987 811.211 380 790.5 380 769.789 380 753 362.987 753 342Z" fill="#FFFFFF" fill-rule="evenodd"/></g></svg>