<svg width="66.6667" height="66.6667" viewBox="0 0 50 50" xmlns="http://www.w3.org/2000/svg" xmlns:xlink="http://www.w3.org/1999/xlink" overflow="hidden"><g id="surface14325330"><path d="M24.5 2C15.8008 2 14 6.49219 14 9.09375L14 14 24 14 24 15 9.09375 15C5.79297 15 2 17.6016 2 25 2 32.3984 5.79297 35 9.09375 35L15 35 15 29C15 26.8008 16.8008 25 19 25L31 25C32.6992 25 34 23.6992 34 22L34 9.09375C34 5.59375 30.6992 2 24.5 2ZM20 7C21.1016 7 22 7.89844 22 9 22 10.1016 21.1016 11 20 11 18.8984 11 18 10.1016 18 9 18 7.89844 18.8984 7 20 7ZM35 15 35 22C35 24.1992 33.1992 26 31 26L19 26C17.3008 26 16 27.3008 16 29L16 40.9063C16 44.4063 19.3008 48 25.5 48 34.1992 48 36 43.5078 36 40.9063L36 36 26 36 26 35 40.9063 35C44.207 35 48 32.3984 48 25 48 17.6016 44.207 15 40.9063 15ZM30 39C31.1016 39 32 39.8984 32 41 32 42.1016 31.1016 43 30 43 28.8984 43 28 42.1016 28 41 28 39.8984 28.8984 39 30 39Z" stroke-width="1.00004"/></g></svg>