<svg width="66.6667" height="66.6667" viewBox="0 0 50 50" xmlns="http://www.w3.org/2000/svg" xmlns:xlink="http://www.w3.org/1999/xlink" overflow="hidden"><g id="surface14327086"><path d="M50.0625 10.4375C48.2148 11.2578 46.2344 11.8086 44.1523 12.0586 46.2773 10.7852 47.9102 8.76953 48.6758 6.37109 46.6914 7.54688 44.4844 8.40234 42.1445 8.86328 40.2695 6.86328 37.5977 5.61719 34.6406 5.61719 28.9609 5.61719 24.3555 10.2188 24.3555 15.8984 24.3555 16.7031 24.4492 17.4883 24.625 18.2422 16.0781 17.8125 8.50391 13.7188 3.42969 7.49609 2.54297 9.01953 2.03906 10.7852 2.03906 12.668 2.03906 16.2344 3.85156 19.3828 6.61328 21.2305 4.92578 21.1758 3.33984 20.7109 1.95313 19.9414 1.95313 19.9844 1.95313 20.0273 1.95313 20.0703 1.95313 25.0547 5.5 29.207 10.1992 30.1563 9.33984 30.3906 8.42969 30.5156 7.49219 30.5156 6.82813 30.5156 6.18359 30.4531 5.55469 30.3281 6.86719 34.4102 10.6641 37.3906 15.1602 37.4727 11.6445 40.2305 7.21094 41.8711 2.39063 41.8711 1.55859 41.8711 0.742188 41.8242-0.0585938 41.7266 4.48828 44.6484 9.89453 46.3477 15.7031 46.3477 34.6172 46.3477 44.9609 30.6797 44.9609 17.0938 44.9609 16.6484 44.9492 16.1992 44.9336 15.7617 46.9414 14.3125 48.6836 12.5 50.0625 10.4375Z" fill="#FFFFFF"/></g></svg>