<svg width="50" height="50" viewBox="0 0 50 50" xmlns="http://www.w3.org/2000/svg" xmlns:xlink="http://www.w3.org/1999/xlink" overflow="hidden"><path d="M41 4 9 4C6.24 4 4 6.24 4 9L4 41C4 43.76 6.24 46 9 46L41 46C43.76 46 46 43.76 46 41L46 9C46 6.24 43.76 4 41 4ZM37.72 33 33.99 32.99C33.99 32.99 33.91 33 33.78 33 33.48 33 32.86 32.92 32.13 32.42 30.82 31.51 29.57 29.25 28.58 29.25 28.51 29.25 28.45 29.26 28.39 29.28 27.53 29.55 27.27 30.41 27.27 31.46 27.27 31.83 27.01 32 26.31 32L24.38 32C22.22 32 20.13 31.95 17.78 29.38 14.32 25.59 11.08 18.85 11.08 18.85 11.08 18.85 10.9 18.46 11.09 18.23 11.27 18.02 11.69 18 11.85 18 11.89 18 11.91 18 11.91 18L15.91 18C15.91 18 16.28 18.07 16.55 18.27 16.78 18.44 16.9 18.75 16.9 18.75 16.9 18.75 17.58 20.07 18.43 21.56 19.86 24.02 20.63 24.84 21.18 24.84 21.27 24.84 21.36 24.82 21.45 24.77 22.27 24.32 22.03 20.68 22.03 20.68 22.03 20.68 22.04 19.36 21.61 18.78 21.28 18.32 20.65 18.19 20.37 18.15 20.15 18.12 20.51 17.6 20.99 17.36 21.61 17.06 22.64 17 23.88 17L24.48 17C25.65 17.02 25.68 17.14 26.14 17.25 27.52 17.58 27.05 18.87 27.05 21.96 27.05 22.95 26.87 24.34 27.58 24.81 27.63 24.84 27.7 24.86 27.79 24.86 28.25 24.86 29.24 24.27 30.82 21.6 31.7 20.08 32.38 18.57 32.38 18.57 32.38 18.57 32.53 18.3 32.76 18.16 32.98 18.03 32.98 18.03 33.27 18.03L33.3 18.03C33.62 18.03 36.8 18 37.5 18L37.58 18C38.25 18 38.86 18.01 38.97 18.42 39.13 19.04 38.48 20.15 36.77 22.45 33.95 26.22 33.63 25.94 35.97 28.12 38.21 30.2 38.67 31.21 38.75 31.34 39.68 32.88 37.72 33 37.72 33Z" fill="#FFFFFF"/></svg>