<svg width="68" height="68" xmlns="http://www.w3.org/2000/svg" xmlns:xlink="http://www.w3.org/1999/xlink" overflow="hidden"><defs><clipPath id="clip0"><path d="M46 445 114 445 114 513 46 513Z" fill-rule="evenodd" clip-rule="evenodd"/></clipPath><clipPath id="clip1"><path d="M46 446 113 446 113 513 46 513Z" fill-rule="evenodd" clip-rule="evenodd"/></clipPath><clipPath id="clip2"><path d="M48 450 113 450 113 510 48 510Z" fill-rule="evenodd" clip-rule="evenodd"/></clipPath><clipPath id="clip3"><path d="M48 450 325 450 325 510 48 510Z" fill-rule="evenodd" clip-rule="evenodd"/></clipPath></defs><g clip-path="url(#clip0)" transform="translate(-46 -445)"><g clip-path="url(#clip1)"><g clip-path="url(#clip2)"><g clip-path="url(#clip3)"><path d="M106.821 34.8113 111.176 23.3591C111.431 22.681 112.384 22.681 112.639 23.3591L116.998 34.8092 106.821 34.8092 106.821 34.8113M116.703 13.6193C116.393 12.7982 115.606 12.2554 114.728 12.2566L109.091 12.2566C108.213 12.2558 107.426 12.7983 107.114 13.6193L95.1552 45.1678C94.9887 45.6088 95.0496 46.1032 95.3177 46.4909 95.586 46.8785 96.0275 47.1094 96.4988 47.109L101.146 47.109C101.743 47.108 102.277 46.7399 102.49 46.1829L103.736 42.9045C103.948 42.3468 104.483 41.9782 105.079 41.9784L118.731 41.9784C119.325 41.9784 119.861 42.3472 120.073 42.9045L121.323 46.1808C121.535 46.736 122.065 47.1048 122.665 47.1048L127.312 47.1048C127.784 47.1052 128.226 46.8738 128.494 46.486 128.763 46.098 128.824 45.6029 128.658 45.1615L116.703 13.6171 116.703 13.6193M274.554 12.2566 269.97 12.2566C268.762 12.2566 267.66 12.9496 267.139 14.0367L258.037 33.0757 248.935 14.0367C248.412 12.9481 247.31 12.2561 246.102 12.2566L241.518 12.2566C240.687 12.2566 240.013 12.9303 240.013 13.7613L240.013 45.6023C240.013 46.4351 240.685 47.1069 241.518 47.1069L245.92 47.1069C246.32 47.108 246.704 46.9501 246.986 46.6678 247.27 46.3855 247.428 46.0022 247.428 45.6023L247.428 29.0873 255.774 46.2613C256.028 46.7784 256.554 47.109 257.13 47.109L258.94 47.109C259.516 47.109 260.042 46.7784 260.296 46.2613L268.646 29.0873 268.646 45.6023C268.646 46.4351 269.32 47.1069 270.151 47.1069L274.552 47.1069C275.383 47.1069 276.057 46.4332 276.057 45.6023L276.057 13.7613C276.057 12.9303 275.383 12.2566 274.552 12.2566L274.554 12.2566M93.9664 27.2606 79.399 27.2606 79.399 19.4259 97.8297 19.4259C98.457 19.4259 99.0165 19.0317 99.2284 18.4426L100.733 14.2381C100.895 13.7834 100.826 13.2784 100.548 12.884 100.269 12.4895 99.8168 12.2548 99.3343 12.2545L73.6983 12.2545C72.879 12.2545 72.2148 12.9187 72.2148 13.7379L72.2148 45.6235C72.2148 46.4427 72.879 47.1069 73.6983 47.1069L77.907 47.1069C78.7263 47.1069 79.3904 46.4427 79.3904 45.6235L79.3904 34.4277 92.4617 34.4277C93.089 34.4286 93.6489 34.0348 93.8604 33.4444L95.365 29.2399C95.5278 28.7851 95.4591 28.2797 95.1809 27.8849 94.9024 27.4901 94.4493 27.2557 93.9664 27.2563L93.9664 27.2605M181.347 40.2342 175.244 40.2342 175.244 19.1312 181.347 19.1312C187.811 19.1312 192.168 23.4226 192.168 29.6848 192.168 35.9428 187.809 40.2342 181.347 40.2342M181.135 12.2565 169.105 12.2565C168.286 12.2565 167.621 12.9207 167.621 13.74L167.621 45.6234C167.621 46.4426 168.286 47.1068 169.105 47.1068L181.138 47.1068C192.03 47.1068 199.56 39.5349 199.56 29.7823L199.56 29.5831C199.56 19.8305 192.037 12.2565 181.14 12.2565L181.136 12.2565M160.967 12.3052 156.517 12.3052C155.699 12.3052 155.033 12.9664 155.033 13.7823L155.033 34.8578 140.254 13.1678C139.866 12.5967 139.22 12.2553 138.529 12.2566L132.934 12.2566C132.118 12.2578 131.457 12.9197 131.457 13.7358L131.457 45.6298C131.457 46.4457 132.12 47.109 132.936 47.109L137.397 47.109C138.214 47.1077 138.875 46.4464 138.877 45.6298L138.877 24.9189 153.408 46.1956C153.796 46.7678 154.442 47.1069 155.133 47.1069L160.976 47.1069C161.796 47.1069 162.459 46.4457 162.459 45.6298L162.459 13.7824C162.458 13.3898 162.302 13.0134 162.023 12.7364 161.745 12.4593 161.368 12.3042 160.976 12.3054L160.966 12.3054M229.692 29.8693C229.692 35.5361 225.119 40.1263 219.473 40.1263 213.817 40.1194 209.239 35.5257 209.25 29.8693L209.25 29.4963C209.25 23.8317 213.828 19.2394 219.473 19.2394 225.119 19.2394 229.694 23.8317 229.694 29.4963L229.694 29.8714 229.692 29.8693M219.473 12.068C209.861 12.068 202.07 19.873 202.07 29.4963L202.07 29.8714C202.07 39.499 209.861 47.2998 219.473 47.2998 229.084 47.2998 236.872 39.5011 236.872 29.8735L236.872 29.5006C236.872 19.8794 229.084 12.0744 219.473 12.0744L219.473 12.0679" fill="#3A3A3A" fill-rule="evenodd" transform="matrix(1.00004 0 -0 1 48.7114 450.444)"/><path d="M26.8589 43.1673C26.8589 43.6612 26.7379 44.3627 26.1703 44.8981L24.0467 46.7097 4.73412 28.6998 4.73412 21.6334 25.9703 41.4388C26.3029 41.7503 26.8612 42.3919 26.8612 43.1696L26.8589 43.1673ZM56.2732 22.1503 56.2732 28.7044 32.2458 51.7084C31.8458 52.0823 31.448 52.2507 30.9479 52.2507 30.4362 52.2507 29.9826 52.0661 29.5989 51.7038L27.4008 49.7329 56.2732 22.148 56.2732 22.1503ZM37.9678 33.8277 31.3085 40.1141 10.2118 20.1979C9.14881 19.1963 8.56733 17.8601 8.56733 16.4293 8.56733 15.0031 9.14881 13.6669 10.2048 12.6676L16.8688 6.37429 37.9654 26.2951C40.1681 28.3721 40.1681 31.7484 37.9654 33.8254L37.9678 33.8277ZM34.0368 16.4778 40.9799 9.92367C42.0452 8.92209 43.4617 8.37053 44.9689 8.37053 46.4808 8.37053 47.895 8.9244 48.958 9.92828L56.122 16.6901 45.1946 27.0059 41.2055 23.2442 34.0415 16.4778 34.0368 16.4778ZM60.7159 15.4347 45.0248 0.364824 44.6992 0.0509649 44.3735 0.360209 30.6688 13.4223 18.4202 1.79796 18.4041 1.78189 18.3926 1.775 16.8575 0.551877 16.5412 0.298021 16.2434 0.574954 0.296491 15.4071 0.156907 15.5363 0.156907 30.4908 0.2919 30.6177 30.1924 58.8303 30.518 59.1396 30.8437 58.8327 60.7163 30.62 60.8487 30.4931 60.8487 15.5594 60.7186 15.4348 60.7159 15.4347Z" fill="#3A3A3A" fill-rule="evenodd" transform="matrix(1.00004 0 -0 1 48.7114 450.444)"/></g></g></g></g></svg>