<svg width="579" height="354" xmlns="http://www.w3.org/2000/svg" xmlns:xlink="http://www.w3.org/1999/xlink" overflow="hidden"><defs><clipPath id="clip0"><path d="M131 134 710 134 710 488 131 488Z" fill-rule="evenodd" clip-rule="evenodd"/></clipPath></defs><g clip-path="url(#clip0)" transform="translate(-131 -134)"><path d="M454.149 278.44 454.129 278.492C452.766 283.734 452.05 289.161 452.05 294.72 452.05 339.19 497.843 375.24 554.33 375.24 610.818 375.24 656.61 339.19 656.61 294.72 656.61 289.161 655.894 283.734 654.532 278.492L654.511 278.44ZM185.489 278.44 185.468 278.492C184.106 283.734 183.39 289.161 183.39 294.72 183.39 339.19 229.182 375.24 285.67 375.24 342.157 375.24 387.949 339.19 387.949 294.72 387.949 289.161 387.234 283.734 385.872 278.492L385.851 278.44ZM164.189 135 675.811 135C694.141 135 709 149.841 709 168.148L709 453.852C709 472.159 694.141 487 675.811 487L164.189 487C145.859 487 131 472.159 131 453.852L131 168.148C131 149.841 145.859 135 164.189 135Z" fill-rule="evenodd"/></g></svg>