<svg width="717" height="620" xmlns="http://www.w3.org/2000/svg" xmlns:xlink="http://www.w3.org/1999/xlink" overflow="hidden"><defs><clipPath id="clip0"><rect x="352" y="35" width="717" height="620"/></clipPath><clipPath id="clip1"><rect x="352" y="36" width="716" height="618"/></clipPath><clipPath id="clip2"><rect x="352" y="36" width="716" height="541"/></clipPath><clipPath id="clip3"><rect x="352" y="36" width="716" height="541"/></clipPath><clipPath id="clip4"><rect x="352" y="36" width="716" height="541"/></clipPath></defs><g clip-path="url(#clip0)" transform="translate(-352 -35)"><g clip-path="url(#clip1)"><g clip-path="url(#clip2)"><g clip-path="url(#clip3)"><g clip-path="url(#clip4)"><path d="M442.711 460.984 442.691 461.036C441.329 466.272 440.614 471.694 440.614 477.247 440.614 521.674 486.361 557.688 542.793 557.688 599.225 557.688 644.971 521.674 644.971 477.247 644.971 471.694 644.256 466.272 642.896 461.036L642.875 460.984 442.711 460.984ZM174.316 460.984C174.309 461.001 174.302 461.019 174.295 461.036 172.935 466.272 172.219 471.694 172.219 477.247 172.219 521.674 217.966 557.688 274.398 557.688 330.829 557.688 376.576 521.674 376.576 477.247 376.576 471.694 375.862 466.272 374.501 461.036L374.48 460.984 174.316 460.984ZM153.037 317.685 527.719 344.059C546.03 344.059 697.31 357.127 697.31 375.416L697.31 636.222C697.31 654.511 682.465 669.337 664.153 669.337L153.037 669.337C134.726 669.337 119.881 654.511 119.881 636.222L119.881 350.801C119.881 332.512 134.726 317.685 153.037 317.685Z" fill-rule="evenodd" transform="matrix(1.00099 0 0 1 239 -93.866)"/><path d="M179.822 295.096C180.381 290.975 180.376 288.846 181.613 285.203 181.843 284.528 182.178 283.875 182.509 283.225 183.556 281.169 184.612 279.197 186.093 277.288 186.627 276.6 187.438 276.032 187.884 275.309 188.94 273.6 189.516 271.744 190.571 270.034 191.017 269.312 191.882 268.764 192.364 268.055 192.786 267.433 192.928 266.727 193.26 266.077 193.824 264.968 194.332 263.838 195.051 262.779 195.532 262.07 196.361 261.509 196.842 260.8 199.819 256.417 197.594 257.332 202.218 252.226 202.814 251.567 203.527 250.957 204.009 250.247 205.958 247.377 203.589 248.833 206.696 245.631 207.433 244.872 208.488 244.311 209.384 243.652 211.13 240.438 210.582 240.791 212.967 238.376 214.723 236.598 218.342 233.099 218.342 233.099 219.977 228.283 217.922 232.412 221.925 228.483 222.97 227.457 223.69 226.272 224.613 225.185 225.183 224.513 225.771 223.847 226.404 223.206 228.16 221.428 231.78 217.93 231.78 217.93 233.247 213.608 231.582 216.589 236.258 212.653 241.444 208.29 236.482 211.774 241.633 206.717 242.393 205.971 243.486 205.441 244.32 204.739 245.58 203.679 246.808 202.594 247.904 201.442 248.903 200.392 249.625 199.21 250.591 198.144 251.419 197.229 252.487 196.438 253.278 195.505 253.987 194.671 254.362 193.701 255.07 192.867 257.126 190.445 258.563 189.636 261.341 187.591 264.003 181.712 259.644 190.357 271.195 179.017 272.091 178.138 272.688 177.039 273.883 176.378 275.169 175.668 276.868 175.499 278.361 175.06 280.209 173.699 283.061 171.351 285.528 170.443 288.404 169.384 291.913 169.225 294.486 167.805 300.362 164.561 295.6 166.832 302.548 164.507 304.372 163.897 306.172 163.244 307.923 162.528 308.864 162.143 309.589 161.46 310.61 161.209 312.334 160.787 314.194 160.77 315.985 160.55 317.18 159.891 318.264 159.105 319.569 158.571 320.974 157.997 322.584 157.742 324.048 157.252 325.871 156.642 327.665 155.98 329.423 155.273 330.951 154.66 332.317 153.826 333.901 153.295 335.621 152.72 337.588 152.598 339.277 151.976 345.57 149.659 345.355 149.556 350.923 148.018 351.807 147.775 352.688 147.51 353.61 147.359 355.383 147.068 357.211 146.989 358.985 146.7 359.907 146.549 360.756 146.208 361.672 146.039 363.149 145.768 364.658 145.6 366.151 145.38 369.336 144.208 371.419 143.285 375.11 142.742 377.761 142.352 380.484 142.302 383.172 142.082 384.365 141.863 385.571 141.672 386.755 141.423 387.663 141.232 388.52 140.914 389.442 140.764 393.901 140.034 398.335 139.119 402.879 138.785 405.865 138.565 408.86 138.399 411.837 138.125 413.639 137.959 415.432 137.728 417.213 137.466 418.42 137.288 419.576 136.926 420.795 136.807 424.065 136.486 427.367 136.377 430.65 136.147 448.2 134.916 430.609 136.039 450.357 134.828 460.58 133.322 457.521 133.575 467.378 132.849 470.66 132.608 473.936 132.265 477.232 132.189L554.272 130.87 601.75 131.53C603.272 131.569 604.741 131.951 606.229 132.189 611.609 133.05 617.13 133.546 622.354 134.828 623.25 135.047 624.164 135.229 625.041 135.487 627.153 136.109 629.154 136.936 631.312 137.466 632.757 137.821 634.298 137.905 635.791 138.125 637.881 138.785 639.924 139.532 642.061 140.104 652.379 142.867 636.958 137.769 651.019 142.082 662.132 145.492 649.94 142.918 665.352 146.7 667.144 147.139 669.009 147.443 670.728 148.018 672.312 148.549 673.615 149.477 675.206 149.997 676.331 150.365 677.611 150.396 678.79 150.657 680.599 151.056 682.39 151.501 684.165 151.976 691.467 153.931 685.891 152.54 692.227 154.614 693.696 155.094 695.237 155.452 696.706 155.933 697.926 156.332 699.023 156.942 700.29 157.252 701.734 157.607 703.276 157.692 704.768 157.912 705.963 158.351 707.132 158.832 708.352 159.23 709.821 159.712 711.393 160.021 712.831 160.55 713.793 160.905 714.556 161.514 715.519 161.869 716.956 162.398 718.56 162.659 719.997 163.188 723.105 164.332 727.549 167.9 729.851 168.464L732.539 169.124C733.435 169.783 734.264 170.495 735.226 171.103 736.36 171.818 737.754 172.303 738.81 173.081 739.571 173.641 739.84 174.499 740.601 175.06 741.362 175.62 742.492 175.846 743.288 176.378 745.788 178.052 748.066 179.896 750.455 181.655L754.038 184.294C754.934 184.953 755.915 185.555 756.726 186.272 762.16 191.074 759.339 189.199 764.788 192.208 768.192 198.473 764.543 193.012 769.267 197.484 777.178 204.972 768.668 198.363 776.433 204.08 777.36 206.127 777.46 206.658 779.121 208.696 781.645 211.793 782.858 212.277 784.496 215.292 785.198 216.583 785.829 217.9 786.288 219.249 786.586 220.128 786.751 221.038 787.184 221.887 787.652 222.807 788.479 223.613 788.975 224.526 789.676 225.816 790.17 227.163 790.766 228.483 791.065 229.142 791.24 229.839 791.662 230.461 792.26 231.341 792.985 232.179 793.454 233.099 794.487 235.129 794.395 236.945 795.246 239.035 795.707 240.169 796.575 241.199 797.037 242.333 799.151 247.519 796.377 243.913 799.724 247.609 801.552 255.681 799.749 247.112 801.516 258.822 802.655 266.366 801.86 260.746 803.308 266.077 803.664 267.387 803.905 268.715 804.204 270.034 803.905 281.685 804.155 293.352 803.308 304.989 803.251 305.781 801.998 306.259 801.516 306.968 801.094 307.589 801.225 308.413 800.62 308.946 799.664 309.791 798.093 310.148 797.037 310.925 789.572 316.422 805.1 308.067 789.871 315.542 788.975 315.981 788.205 316.611 787.184 316.861L781.808 318.18C775.24 317.96 768.656 317.906 762.1 317.521 757.798 317.267 759.224 315.177 754.038 314.223 740.522 311.735 760.925 315.693 746.872 312.244 744.536 311.67 742.041 311.499 739.706 310.925 737.017 310.266 734.391 309.453 731.643 308.946L724.477 307.627C717.31 307.847 710.052 307.419 702.977 308.287 699.58 308.703 697.341 311.416 694.915 312.904 694.088 313.412 693.032 313.696 692.227 314.223 690.334 315.463 686.852 318.18 686.852 318.18 686.255 319.5 686.108 320.98 685.061 322.137 682.222 325.273 683.609 323.364 681.477 328.073 681.179 328.733 680.581 329.357 680.581 330.052L680.581 334.669" fill="#FF0000" fill-rule="evenodd" transform="matrix(1.00099 0 0 1 239 -93.866)"/><path d="M125.011 295.841C126.262 284.138 136.764 275.665 148.467 276.916L702.753 336.169C714.457 337.42 722.929 347.922 721.679 359.625L710.652 462.767C709.402 474.47 698.9 482.943 687.197 481.692L132.911 422.439C121.208 421.188 112.734 410.686 113.985 398.983Z" fill="#FFFFFF" fill-rule="evenodd" transform="matrix(1.00099 0 0 1 239 -93.866)"/><path d="M752.255 341.662C752.255 320.695 769.028 303.699 789.718 303.699 810.409 303.699 827.181 320.695 827.181 341.662 827.181 362.628 810.409 379.624 789.718 379.624 769.028 379.624 752.255 362.628 752.255 341.662Z" fill="#FFFFFF" fill-rule="evenodd" transform="matrix(1.00099 0 0 1 239 -93.866)"/></g></g></g></g></g></svg>